<?xml version="1.0" ?><svg viewBox="0 0 24 24" xmlns="http://www.w3.org/2000/svg"><title/><g data-name="Layer 2" id="Layer_2"><path d="M5,22a3,3,0,0,0,3-3,3,3,0,0,0-.3-1.29L10,15.43a3.88,3.88,0,0,0,4,0l1.27,1.27,0,0A3,3,0,0,0,15,18a3,3,0,1,0,3-3,3,3,0,0,0-1.32.32l0,0L15.43,14a3.88,3.88,0,0,0,0-4L17.71,7.7A3,3,0,0,0,19,8a3,3,0,1,0-3-3,3,3,0,0,0,.3,1.29L14,8.57a3.88,3.88,0,0,0-4,0L8.7,7.29A3,3,0,0,0,9,6,3,3,0,1,0,6,9a3,3,0,0,0,1.29-.3L8.57,10a3.88,3.88,0,0,0,0,4L6.29,16.3A3,3,0,0,0,5,16a3,3,0,0,0,0,6Zm13-5a1,1,0,1,1-1,1A1,1,0,0,1,18,17ZM19,4a1,1,0,1,1-1,1A1,1,0,0,1,19,4Zm-5,8a2,2,0,1,1-2-2A2,2,0,0,1,14,12ZM5,6A1,1,0,1,1,6,7,1,1,0,0,1,5,6ZM5,18a1,1,0,1,1-1,1A1,1,0,0,1,5,18Z"/></g></svg>